<svg width="221" height="183" viewBox="0 0 221 183" fill="none" xmlns="http://www.w3.org/2000/svg">
<path d="M215.656 6.09583C206.53 12.533 196.426 17.4564 185.732 20.6765C179.993 14.0772 172.365 9.39974 163.881 7.27682C155.396 5.15391 146.465 5.68791 138.294 8.80662C130.123 11.9253 123.107 17.4783 118.194 24.7144C113.282 31.9505 110.711 40.5207 110.828 49.2659V58.7957C94.0806 59.23 77.4858 55.5157 62.5214 47.9836C47.5571 40.4516 34.6878 29.3356 25.0596 15.6256C25.0596 15.6256 -13.0596 101.394 72.7087 139.513C53.0823 152.836 29.7021 159.516 6 158.573C91.7683 206.222 196.596 158.573 196.596 48.98C196.588 46.3255 196.332 43.6776 195.834 41.0703C205.56 31.4784 212.424 19.3681 215.656 6.09583V6.09583Z" stroke="#F1F1F1" stroke-width="11" stroke-linecap="round" stroke-linejoin="round"/>
</svg>
