<svg width="294" height="123" viewBox="0 0 294 123" fill="none" xmlns="http://www.w3.org/2000/svg">
<rect x="8" y="7" width="279" height="111" fill="white"/>
<path d="M0 0V122.85H293.831V0H0ZM249.082 32.7882H233.457V53.0522H249.082V69.5166H233.457V90.062H249.082V106.245H216.012V24.7671L202.056 106.245H181.729C181.729 106.245 171.262 48.5491 171.262 48.4083C172.931 57.696 166.56 67.4058 161.099 71.346L172.173 106.245H155.031L146.688 76.5527L142.592 77.1156V106.245H109.523L107.551 92.4543H93.8986L91.9266 106.245H57.9471V62.9027L50.059 106.245H40.8057L32.9176 62.9027V106.245H15.3211V16.3237H37.4684L45.2048 62.762L53.2446 16.3237H75.3919V98.9275L88.741 16.3237H111.95L124.844 96.1131V16.3237H142.592C158.52 16.3237 165.802 27.1593 167.925 30.9588L165.953 16.3237H183.701L191.741 71.0646L199.781 16.3237H248.93V32.7882H249.082ZM284.275 106.245H252.115V16.4645H269.408V90.2028H284.275V106.245ZM154.121 46.7197C154.121 54.0372 150.632 58.5403 146.536 60.3697C145.171 60.9326 143.806 61.214 142.441 61.214V32.366H142.592C143.958 32.366 154.121 32.7882 154.121 46.7197V46.7197ZM100.573 39.6836L105.579 78.1007H95.7189L100.573 39.6836Z" fill="#E50B14"/>
</svg>
