<svg width="726" height="163" viewBox="0 0 726 163" fill="none" xmlns="http://www.w3.org/2000/svg">
<path d="M725.467 0V5.95465H381.177V0H725.467ZM381.177 162.264H725.467V156.31H381.177V162.264ZM381.364 103.276V119.837C381.364 134.352 388.443 141.609 403.161 141.609H406.887C421.605 141.609 429.058 134.352 429.058 119.465V102.16C429.058 91.925 426.263 86.3425 417.693 80.0156L401.112 68.1063C397.2 65.3151 394.964 62.7099 394.964 56.7553V41.8686C394.964 35.7279 397.759 32.9367 403.907 32.9367H406.328C412.477 32.9367 415.271 35.7279 415.271 41.8686V52.4754H428.499V42.2408C428.499 27.7264 421.419 20.4691 406.701 20.4691H403.348C388.63 20.4691 381.177 27.7264 381.177 42.613V56.9414C381.177 66.6177 383.786 72.7584 392.542 79.0852L409.123 91.1806C413.035 93.9719 415.085 96.577 415.085 102.532V120.396C415.085 126.536 412.29 129.328 406.142 129.328H403.72C397.572 129.328 394.778 126.536 394.778 120.396V103.276H381.364ZM463.524 140.493V34.2393H481.409V21.5856H432.038V34.2393H449.924V140.493H463.524ZM486.439 21.7717V119.465C486.439 134.166 493.705 141.609 508.609 141.609H512.894C527.612 141.609 535.064 134.352 535.064 119.465V21.7717H521.464V120.21C521.464 126.35 518.67 129.142 512.522 129.142H509.355C503.206 129.142 500.412 126.35 500.412 120.21V21.7717H486.439ZM565.991 140.493H543.634V21.5856H565.991C583.876 21.5856 592.26 30.1454 592.26 47.8233V114.069C592.446 132.119 583.876 140.493 565.991 140.493ZM578.846 47.8233C578.846 38.7053 574.561 34.0532 565.432 34.0532H557.235V128.025H565.432C574.561 128.025 578.846 123.373 578.846 114.255V47.8233ZM600.643 21.7717V140.679H614.243V21.7717H600.643ZM644.425 141.609C629.707 141.609 622.255 134.352 622.255 119.465V42.7991C622.255 28.0985 629.52 20.6552 644.425 20.6552H649.455C664.173 20.6552 671.625 27.9124 671.625 42.7991V119.465C671.625 134.166 664.359 141.609 649.455 141.609H644.425ZM644.984 129.142H649.082C655.23 129.142 658.025 126.35 658.025 120.21V42.0547C658.025 35.914 655.23 33.1228 649.082 33.1228H644.984C638.836 33.1228 636.041 36.1001 636.041 42.0547V120.21C636.041 126.35 638.836 129.142 644.984 129.142ZM677.587 103.276V119.837C677.587 134.352 684.666 141.609 699.384 141.609H703.11C717.828 141.609 725.281 134.352 725.281 119.465V102.16C725.281 91.925 722.486 86.3425 713.916 80.0156L697.335 68.1063C693.423 65.3151 691.187 62.7099 691.187 56.7553V41.8686C691.187 35.7279 693.982 32.9367 700.13 32.9367H702.551C708.699 32.9367 711.494 35.7279 711.494 41.8686V52.4754H724.722V42.2408C724.722 27.7264 717.642 20.4691 702.924 20.4691H699.571C684.853 20.4691 677.4 27.7264 677.4 42.613V56.9414C677.4 66.6177 680.009 72.7584 688.765 79.0852L705.346 91.1806C709.258 93.9719 711.308 96.577 711.308 102.532V120.396C711.308 126.536 708.513 129.328 702.365 129.328H699.943C693.795 129.328 691.001 126.536 691.001 120.396V103.276H677.587Z" fill="white"/>
<path d="M0 0V162.45H360.87V0H0ZM305.911 43.3573H286.721V70.1533H305.911V91.9249H286.721V119.093H305.911V140.493H265.297V32.7506L248.157 140.493H223.192C223.192 140.493 210.337 64.1986 210.337 64.0125C212.386 76.294 204.562 89.1337 197.855 94.344L211.455 140.493H190.402L180.156 101.229L175.126 101.973V140.493H134.511L132.089 122.256H115.322L112.9 140.493H71.168V83.1791L61.4802 140.493H50.1157L40.4279 83.1791V140.493H18.8167V21.5856H46.017L55.5185 82.993L65.3926 21.5856H92.593V130.816L108.988 21.5856H137.492L153.328 127.095V21.5856H175.126C194.687 21.5856 203.63 35.914 206.238 40.9382L203.816 21.5856H225.614L235.488 93.9718L245.362 21.5856H305.724V43.3573H305.911ZM349.133 140.493H309.637V21.7717H330.875V119.279H349.133V140.493ZM189.285 61.7795C189.285 71.4558 185 77.4105 179.969 79.8296C178.293 80.5739 176.616 80.946 174.939 80.946V42.799H175.126C176.802 42.799 189.285 43.3573 189.285 61.7795ZM123.519 52.4754L129.667 103.276H117.558L123.519 52.4754Z" fill="white"/>
</svg>
